<svg width="47" height="30" viewBox="0 0 47 30" fill="none" xmlns="http://www.w3.org/2000/svg">
<g clip-path="url(#clip0_265_39)">
<path d="M23.5023 3.7603C22.8328 3.7603 22.29 3.21752 22.29 2.54803V1.21227C22.29 0.542773 22.8328 0 23.5023 0C24.1718 0 24.7146 0.542773 24.7146 1.21227V2.54803C24.7146 3.21752 24.1718 3.7603 23.5023 3.7603Z" fill="#098E83"/>
<path d="M15.4726 5.77657C14.9 5.77657 14.3906 5.36908 14.2822 4.78574L14.0207 3.37943C13.8982 2.72117 14.3326 2.08837 14.9908 1.96593C15.6493 1.84365 16.2819 2.27788 16.4043 2.93606L16.6658 4.34237C16.7883 5.00063 16.3539 5.63344 15.6957 5.75588C15.6208 5.76986 15.5462 5.77657 15.4726 5.77657Z" fill="#098E83"/>
<path d="M31.5273 5.81551C31.4538 5.81551 31.3792 5.8088 31.3043 5.7949C30.646 5.67246 30.2117 5.03966 30.3341 4.3814L30.5957 2.97509C30.7181 2.31682 31.3508 1.88283 32.0092 2.00495C32.6674 2.12739 33.1017 2.76019 32.9793 3.41845L32.7178 4.82476C32.6092 5.40802 32.0999 5.81551 31.5273 5.81551Z" fill="#098E83"/>
<path d="M29.9912 14.0601H17.0146C16.4306 14.0601 15.9296 13.6437 15.8228 13.0695L14.2822 4.78654C14.1917 4.30001 14.406 3.80743 14.8235 3.54194C15.2412 3.27646 15.7781 3.29149 16.1803 3.57961L20.3001 6.53276L22.4049 2.03445C22.6043 1.60822 23.0323 1.33594 23.5028 1.33594C23.9734 1.33594 24.4015 1.60822 24.6008 2.03445L26.7055 6.53276L30.8253 3.57961C31.2276 3.29133 31.7645 3.27638 32.1821 3.54194C32.5997 3.80743 32.8139 4.30009 32.7234 4.78654L31.1828 13.0695C31.0763 13.6436 30.5752 14.0601 29.9912 14.0601Z" fill="#17AB9F"/>
<path d="M32.1822 3.54194C31.7646 3.27637 31.2276 3.29132 30.8254 3.5796L26.7056 6.53276L24.6009 2.03444C24.4015 1.60821 23.9735 1.33594 23.5029 1.33594V14.0602H29.9912C30.5753 14.0602 31.0763 13.6438 31.183 13.0696L32.7237 4.78661C32.814 4.30009 32.5998 3.80743 32.1822 3.54194Z" fill="#009C8F"/>
<path d="M30.7993 14.0612H16.2064C15.5369 14.0612 14.9941 13.5184 14.9941 12.8489C14.9941 12.1794 15.5369 11.6367 16.2064 11.6367H30.7993C31.4688 11.6367 32.0116 12.1794 32.0116 12.8489C32.0116 13.5184 31.4688 14.0612 30.7993 14.0612Z" fill="#19A296"/>
<path d="M30.7994 11.6367H23.5029V14.0613H30.7994C31.4689 14.0613 32.0116 13.5185 32.0116 12.849C32.0116 12.1795 31.4689 11.6367 30.7994 11.6367Z" fill="#029286"/>
<path d="M39 13.5078H8C3.58172 13.5078 0 17.0895 0 21.5078C0 25.9261 3.58172 29.5078 8 29.5078H39C43.4183 29.5078 47 25.9261 47 21.5078C47 17.0895 43.4183 13.5078 39 13.5078Z" fill="#47B0A7"/>
<path d="M13.2885 20.2291C13.5645 18.8131 13.5645 17.7451 13.5645 17.0371V16.4731H8.21245V17.2771H12.6045C12.6045 17.9611 12.5685 18.8851 12.3165 20.1211L13.2885 20.2291ZM14.3085 20.8771C13.2165 21.0211 11.9925 21.1171 10.8165 21.1651V18.8731H9.84445V21.2011C9.02845 21.2131 8.24845 21.2251 7.56445 21.2251L7.66045 22.0291C9.56845 22.0291 12.1485 21.9691 14.3805 21.5971L14.3085 20.8771ZM10.1925 23.0011H9.20845V26.1571H16.3605V25.3531H10.1925V23.0011ZM16.0125 19.1371V15.6331H15.0285V23.7451H16.0125V19.9531H17.5485V19.1371H16.0125ZM20.2836 20.4691H24.2556V16.6291H19.2636V17.4331H23.2596V19.6771H19.2996V23.8051H20.1876C22.0356 23.8051 23.6676 23.7331 25.6116 23.4091L25.5156 22.6051C23.6316 22.9051 22.0476 22.9891 20.2836 22.9891V20.4691ZM26.5236 15.6211V26.4091H27.5076V15.6211H26.5236ZM33.3386 17.5531H35.7266V16.7371H29.9066V17.5531H32.3666V18.9211C32.3666 20.7451 31.0706 22.7851 29.5346 23.5531L30.1106 24.3331C31.3226 23.7091 32.3666 22.3411 32.8586 20.7691C33.3506 22.2091 34.3586 23.4691 35.5586 24.0691L36.1226 23.2771C34.5626 22.5451 33.3386 20.6371 33.3386 18.9211V17.5531ZM39.7706 19.9771H37.9946V15.6451H37.0106V26.3971H37.9946V20.8051H39.7706V19.9771Z" fill="white"/>
</g>
<defs>
<clipPath id="clip0_265_39">
<rect width="47" height="30" fill="white"/>
</clipPath>
</defs>
</svg>
