<svg width="14" height="14" viewBox="0 0 14 14" fill="none" xmlns="http://www.w3.org/2000/svg">
<g clip-path="url(#clip0_670_33)">
<path d="M0.937297 10.5C1.4198 11.3374 2.48985 11.6251 3.32728 11.1426C3.32785 11.1423 3.3284 11.142 3.32897 11.1416L3.58855 10.9917C4.07855 11.411 4.64177 11.7361 5.24987 11.9507V12.25C5.24987 13.2165 6.03338 14 6.99987 14C7.96636 14 8.74987 13.2165 8.74987 12.25V11.9507C9.35805 11.7357 9.9213 11.4102 10.4112 10.9906L10.6719 11.1411C11.5096 11.6243 12.5804 11.337 13.0636 10.4994C13.5469 9.66178 13.2596 8.59097 12.4219 8.10772L12.1629 7.9584C12.2795 7.324 12.2795 6.67365 12.1629 6.03922L12.4219 5.8899C13.2596 5.40665 13.5469 4.33587 13.0636 3.49822C12.5804 2.6606 11.5096 2.3733 10.6719 2.85655L10.4124 3.00647C9.92188 2.58776 9.35827 2.26324 8.74987 2.04925V1.75C8.74987 0.783508 7.96636 0 6.99987 0C6.03338 0 5.24987 0.783508 5.24987 1.75V2.04925C4.64169 2.26425 4.07844 2.58975 3.58855 3.00943L3.3278 2.85835C2.49015 2.37508 1.41937 2.66238 0.936121 3.5C0.452875 4.33762 0.740148 5.40843 1.5778 5.89168L1.8368 6.041C1.7202 6.6754 1.7202 7.32575 1.8368 7.96018L1.5778 8.1095C0.742473 8.59403 0.456129 9.66273 0.937297 10.5ZM6.99987 4.66668C8.28853 4.66668 9.3332 5.71134 9.3332 7C9.3332 8.28866 8.28853 9.33332 6.99987 9.33332C5.71121 9.33332 4.66655 8.28866 4.66655 7C4.66655 5.71134 5.71121 4.66668 6.99987 4.66668Z" fill="#374957"/>
</g>
<defs>
<clipPath id="clip0_670_33">
<rect width="14" height="14" fill="white"/>
</clipPath>
</defs>
</svg>
