<svg width="80" height="34" viewBox="0 0 80 34" fill="none" xmlns="http://www.w3.org/2000/svg">
<g clip-path="url(#clip0_230_123)">
<path d="M35.4192 16.4031C36.0545 16.6733 36.7885 16.3774 37.0588 15.7421C37.329 15.1069 37.0331 14.3728 36.3978 14.1026C35.7625 13.8323 35.0285 14.1283 34.7583 14.7635C34.488 15.3988 34.784 16.1329 35.4192 16.4031Z" fill="#009C8F"/>
<path d="M38.2723 15.4422C38.9075 15.7124 39.6416 15.4165 39.9118 14.7812C40.182 14.1459 39.8861 13.4119 39.2508 13.1416C38.6156 12.8714 37.8815 13.1673 37.6113 13.8026C37.3411 14.4379 37.637 15.1719 38.2723 15.4422Z" fill="#009C8F"/>
<path d="M41.033 16.6179C41.6683 16.8882 42.4023 16.5922 42.6725 15.957C42.9428 15.3217 42.6469 14.5877 42.0116 14.3174C41.3763 14.0472 40.6423 14.3431 40.372 14.9784C40.1018 15.6137 40.3977 16.3477 41.033 16.6179Z" fill="#009C8F"/>
<path d="M42.3206 19.3367C42.9559 19.6069 43.6899 19.311 43.9601 18.6757C44.2304 18.0405 43.9345 17.3064 43.2992 17.0362C42.6639 16.7659 41.9299 17.0619 41.6596 17.6971C41.3894 18.3324 41.6853 19.0665 42.3206 19.3367Z" fill="#009C8F"/>
<path d="M40.7669 20.2315C40.5663 19.5919 40.4007 19.0487 40.1954 18.4072C40.0894 18.0687 39.9237 17.7048 39.6486 17.4574C39.6058 17.4174 39.561 17.3821 39.5143 17.3514C39.4072 17.284 39.2829 17.2312 39.1633 17.1803C39.0437 17.1294 38.9194 17.0766 38.79 17.0487C38.7355 17.0364 38.679 17.0286 38.6206 17.0255C38.2515 16.9989 37.879 17.1339 37.5571 17.2903C36.9571 17.5894 36.451 17.8468 35.8465 18.1439C34.9873 18.4902 33.9628 18.8422 33.7035 19.835C33.6373 20.361 33.7755 20.9686 34.3215 21.3584C34.628 21.5703 35.8155 21.7549 36.9566 22.2403L37.0394 22.2755C38.1804 22.7609 39.139 23.4838 39.5022 23.5622C40.1617 23.6852 40.6972 23.3587 41.0283 22.9508C41.5702 22.0729 41.1133 21.0906 40.7669 20.2315Z" fill="#009C8F"/>
</g>
<path d="M2.99 30.13C2.35 30.13 1.82 30 1.4 29.74C0.98 29.48 0.74 29.12 0.68 28.66C0.66 28.56 0.65 28.46 0.65 28.36C0.65 28.28 0.65 28.19 0.65 28.09C0.65 27.35 0.79 26.48 1.07 25.48C1.35 24.48 1.71 23.44 2.15 22.36C2.59 21.28 3.04 20.27 3.5 19.33C3.66 18.99 3.88 18.5 4.16 17.86C4.46 17.22 4.75 16.55 5.03 15.85C5.33 15.13 5.58 14.5 5.78 13.96C5.98 13.4 6.06 13.03 6.02 12.85V12.7C6.02 12.46 6.21 12.34 6.59 12.34C7.03 12.34 7.46 12.43 7.88 12.61C8.3 12.81 8.62 13.09 8.84 13.45C9.06 13.81 9.17 14.19 9.17 14.59C9.17 14.91 9.09 15.25 8.93 15.61L8.09 17.38C8.35 16.96 8.65 16.49 8.99 15.97C9.33 15.45 9.67 14.94 10.01 14.44C10.37 13.92 10.68 13.48 10.94 13.12C11.22 12.74 11.42 12.5 11.54 12.4C11.72 12.24 11.96 12.16 12.26 12.16C12.48 12.16 12.71 12.2 12.95 12.28C13.19 12.34 13.45 12.42 13.73 12.52C14.01 12.62 14.2 12.81 14.3 13.09C14.42 13.35 14.48 13.67 14.48 14.05C14.48 14.53 14.38 15.13 14.18 15.85C14 16.55 13.75 17.31 13.43 18.13C13.11 18.93 12.75 19.73 12.35 20.53C11.95 21.33 11.54 22.05 11.12 22.69C11.56 22.71 11.98 22.65 12.38 22.51C12.8 22.37 13.17 22.13 13.49 21.79C13.89 21.35 14.25 20.81 14.57 20.17C14.91 19.51 15.21 18.92 15.47 18.4C15.53 18.28 15.62 18.22 15.74 18.22C15.88 18.22 16 18.29 16.1 18.43C16.2 18.57 16.21 18.72 16.13 18.88C15.93 19.28 15.69 19.75 15.41 20.29C15.15 20.81 14.86 21.31 14.54 21.79C14.22 22.27 13.87 22.65 13.49 22.93C13.17 23.19 12.85 23.36 12.53 23.44C12.21 23.52 11.88 23.56 11.54 23.56C11.38 23.56 11.22 23.56 11.06 23.56C10.9 23.54 10.73 23.52 10.55 23.5C10.23 23.92 9.93 24.24 9.65 24.46C9.35 24.68 9.03 24.86 8.69 25C8.35 25.14 7.98 25.21 7.58 25.21C6.42 25.21 5.63 24.58 5.21 23.32C4.85 24.22 4.54 25.11 4.28 25.99C4.02 26.87 3.84 27.69 3.74 28.45C3.72 28.55 3.7 28.65 3.68 28.75C3.68 28.87 3.68 28.98 3.68 29.08C3.68 29.46 3.76 29.7 3.92 29.8C3.94 29.82 3.95 29.85 3.95 29.89C3.95 30.03 3.82 30.1 3.56 30.1C3.46 30.12 3.36 30.13 3.26 30.13C3.18 30.13 3.09 30.13 2.99 30.13ZM8.15 22C8.43 21.5 8.69 20.95 8.93 20.35C9.17 19.73 9.39 19.13 9.59 18.55C9.79 17.97 9.95 17.47 10.07 17.05C10.21 16.61 10.3 16.32 10.34 16.18C10.42 15.9 10.48 15.65 10.52 15.43C10.58 15.19 10.62 14.99 10.64 14.83C10.3 15.27 9.88 15.86 9.38 16.6C8.88 17.34 8.36 18.12 7.82 18.94C7.3 19.76 6.82 20.53 6.38 21.25L8 21.94C8.04 21.98 8.09 22 8.15 22ZM6.59 23.56C6.77 23.56 6.95 23.49 7.13 23.35C7.31 23.19 7.5 22.98 7.7 22.72C7.4 22.58 7.11 22.44 6.83 22.3C6.57 22.14 6.3 21.98 6.02 21.82L5.75 22.27C5.79 22.43 5.84 22.59 5.9 22.75C5.96 22.91 6.03 23.06 6.11 23.2C6.27 23.44 6.43 23.56 6.59 23.56ZM17.3244 25.24C16.6044 25.24 15.9544 25.04 15.3744 24.64C14.7944 24.22 14.5044 23.54 14.5044 22.6C14.5044 21.98 14.6044 21.26 14.8044 20.44C15.0244 19.62 15.2944 18.78 15.6144 17.92C15.9344 17.04 16.2644 16.23 16.6044 15.49C16.9644 14.73 17.2844 14.11 17.5644 13.63C18.0044 12.93 18.4944 12.5 19.0344 12.34C19.5944 12.18 20.2744 12.1 21.0744 12.1C21.6544 12.1 22.1344 12.17 22.5144 12.31C22.8944 12.43 22.9544 12.57 22.6944 12.73C22.3144 12.99 21.8244 13.57 21.2244 14.47C20.6244 15.37 20.0444 16.38 19.4844 17.5C19.3244 17.82 19.1244 18.25 18.8844 18.79C18.6444 19.31 18.4044 19.87 18.1644 20.47C17.9444 21.05 17.7544 21.61 17.5944 22.15C17.4344 22.67 17.3544 23.1 17.3544 23.44C17.3544 23.94 17.5844 24.19 18.0444 24.19C18.5244 24.19 19.0644 23.96 19.6644 23.5C19.9444 23.28 20.2044 23.03 20.4444 22.75C20.6844 22.47 20.9044 22.19 21.1044 21.91C21.5044 21.37 21.8644 20.79 22.1844 20.17C22.5244 19.53 22.8344 18.93 23.1144 18.37C23.1744 18.25 23.2544 18.19 23.3544 18.19C23.4944 18.19 23.6144 18.26 23.7144 18.4C23.8144 18.54 23.8244 18.69 23.7444 18.85C23.4444 19.45 23.0744 20.16 22.6344 20.98C22.1944 21.78 21.6844 22.52 21.1044 23.2C20.6044 23.78 20.0344 24.27 19.3944 24.67C18.7744 25.05 18.0844 25.24 17.3244 25.24ZM21.6144 10.6C21.2744 10.6 21.0044 10.49 20.8044 10.27C20.6044 10.03 20.5044 9.72 20.5044 9.34C20.5044 8.88 20.6244 8.46 20.8644 8.08C21.1044 7.7 21.4044 7.39 21.7644 7.15C22.1244 6.91 22.4944 6.79 22.8744 6.79C23.2144 6.79 23.4844 6.91 23.6844 7.15C23.8844 7.37 23.9844 7.65 23.9844 7.99C23.9844 8.43 23.8644 8.85 23.6244 9.25C23.3844 9.65 23.0844 9.98 22.7244 10.24C22.3644 10.48 21.9944 10.6 21.6144 10.6ZM24.9416 25.24C24.2216 25.24 23.5716 25.04 22.9916 24.64C22.4116 24.22 22.1216 23.55 22.1216 22.63C22.1216 21.91 22.2616 21.03 22.5416 19.99C22.8216 18.95 23.1916 17.89 23.6516 16.81C24.1116 15.71 24.6116 14.72 25.1516 13.84H23.8616C23.7416 13.84 23.6816 13.79 23.6816 13.69C23.6816 13.61 23.7316 13.52 23.8316 13.42C23.9316 13.3 24.0516 13.22 24.1916 13.18C24.5116 13.08 24.9216 12.9 25.4216 12.64C25.9416 12.36 26.4816 12.04 27.0416 11.68C27.6016 11.32 28.1316 10.96 28.6316 10.6C29.1316 10.24 29.5316 9.93 29.8316 9.67C30.0116 9.51 30.2016 9.4 30.4016 9.34C30.6216 9.28 30.8316 9.25 31.0316 9.25C31.3716 9.25 31.6316 9.31 31.8116 9.43C31.9916 9.55 31.9916 9.67 31.8116 9.79C31.6516 9.89 31.4316 10.14 31.1516 10.54C30.8716 10.94 30.5816 11.38 30.2816 11.86C30.0016 12.34 29.7516 12.77 29.5316 13.15H31.8116C31.8516 13.15 31.8716 13.18 31.8716 13.24C31.8716 13.34 31.8316 13.47 31.7516 13.63C31.6716 13.77 31.5916 13.84 31.5116 13.84H29.1416C28.7416 14.54 28.3016 15.34 27.8216 16.24C27.3416 17.14 26.8816 18.06 26.4416 19C26.0216 19.92 25.6716 20.78 25.3916 21.58C25.1116 22.36 24.9716 22.98 24.9716 23.44C24.9716 23.94 25.2016 24.19 25.6616 24.19C26.1416 24.19 26.6816 23.96 27.2816 23.5C27.7816 23.08 28.2516 22.56 28.6916 21.94C29.1116 21.36 29.4816 20.76 29.8016 20.14C30.1416 19.52 30.4216 18.99 30.6416 18.55C30.7216 18.41 30.8316 18.34 30.9716 18.34C31.1116 18.34 31.2216 18.4 31.3016 18.52C31.4016 18.62 31.4116 18.75 31.3316 18.91C31.0316 19.51 30.6516 20.21 30.1916 21.01C29.7316 21.81 29.2416 22.54 28.7216 23.2C28.3016 23.72 27.8916 24.12 27.4916 24.4C27.1116 24.66 26.7016 24.86 26.2616 25C25.8416 25.16 25.4016 25.24 24.9416 25.24ZM47.7556 30.13C47.1156 30.13 46.5856 30 46.1656 29.74C45.7456 29.48 45.5056 29.12 45.4456 28.66C45.4256 28.56 45.4156 28.46 45.4156 28.36C45.4156 28.28 45.4156 28.19 45.4156 28.09C45.4156 27.35 45.5556 26.48 45.8356 25.48C46.1156 24.48 46.4756 23.44 46.9156 22.36C47.3556 21.28 47.8056 20.27 48.2656 19.33C48.4256 18.99 48.6456 18.5 48.9256 17.86C49.2256 17.22 49.5156 16.55 49.7956 15.85C50.0956 15.13 50.3456 14.5 50.5456 13.96C50.7456 13.4 50.8256 13.03 50.7856 12.85V12.7C50.7856 12.46 50.9756 12.34 51.3556 12.34C51.7956 12.34 52.2256 12.43 52.6456 12.61C53.0656 12.81 53.3856 13.09 53.6056 13.45C53.8256 13.81 53.9356 14.19 53.9356 14.59C53.9356 14.91 53.8556 15.25 53.6956 15.61L52.8556 17.38C53.1156 16.96 53.4156 16.49 53.7556 15.97C54.0956 15.45 54.4356 14.94 54.7756 14.44C55.1356 13.92 55.4456 13.48 55.7056 13.12C55.9856 12.74 56.1856 12.5 56.3056 12.4C56.4856 12.24 56.7256 12.16 57.0256 12.16C57.2456 12.16 57.4756 12.2 57.7156 12.28C57.9556 12.34 58.2156 12.42 58.4956 12.52C58.7756 12.62 58.9656 12.81 59.0656 13.09C59.1856 13.35 59.2456 13.67 59.2456 14.05C59.2456 14.53 59.1456 15.13 58.9456 15.85C58.7656 16.55 58.5156 17.31 58.1956 18.13C57.8756 18.93 57.5156 19.73 57.1156 20.53C56.7156 21.33 56.3056 22.05 55.8856 22.69C56.3256 22.71 56.7456 22.65 57.1456 22.51C57.5656 22.37 57.9356 22.13 58.2556 21.79C58.6556 21.35 59.0156 20.81 59.3356 20.17C59.6756 19.51 59.9756 18.92 60.2356 18.4C60.2956 18.28 60.3856 18.22 60.5056 18.22C60.6456 18.22 60.7656 18.29 60.8656 18.43C60.9656 18.57 60.9756 18.72 60.8956 18.88C60.6956 19.28 60.4556 19.75 60.1756 20.29C59.9156 20.81 59.6256 21.31 59.3056 21.79C58.9856 22.27 58.6356 22.65 58.2556 22.93C57.9356 23.19 57.6156 23.36 57.2956 23.44C56.9756 23.52 56.6456 23.56 56.3056 23.56C56.1456 23.56 55.9856 23.56 55.8256 23.56C55.6656 23.54 55.4956 23.52 55.3156 23.5C54.9956 23.92 54.6956 24.24 54.4156 24.46C54.1156 24.68 53.7956 24.86 53.4556 25C53.1156 25.14 52.7456 25.21 52.3456 25.21C51.1856 25.21 50.3956 24.58 49.9756 23.32C49.6156 24.22 49.3056 25.11 49.0456 25.99C48.7856 26.87 48.6056 27.69 48.5056 28.45C48.4856 28.55 48.4656 28.65 48.4456 28.75C48.4456 28.87 48.4456 28.98 48.4456 29.08C48.4456 29.46 48.5256 29.7 48.6856 29.8C48.7056 29.82 48.7156 29.85 48.7156 29.89C48.7156 30.03 48.5856 30.1 48.3256 30.1C48.2256 30.12 48.1256 30.13 48.0256 30.13C47.9456 30.13 47.8556 30.13 47.7556 30.13ZM52.9156 22C53.1956 21.5 53.4556 20.95 53.6956 20.35C53.9356 19.73 54.1556 19.13 54.3556 18.55C54.5556 17.97 54.7156 17.47 54.8356 17.05C54.9756 16.61 55.0656 16.32 55.1056 16.18C55.1856 15.9 55.2456 15.65 55.2856 15.43C55.3456 15.19 55.3856 14.99 55.4056 14.83C55.0656 15.27 54.6456 15.86 54.1456 16.6C53.6456 17.34 53.1256 18.12 52.5856 18.94C52.0656 19.76 51.5856 20.53 51.1456 21.25L52.7656 21.94C52.8056 21.98 52.8556 22 52.9156 22ZM51.3556 23.56C51.5356 23.56 51.7156 23.49 51.8956 23.35C52.0756 23.19 52.2656 22.98 52.4656 22.72C52.1656 22.58 51.8756 22.44 51.5956 22.3C51.3356 22.14 51.0656 21.98 50.7856 21.82L50.5156 22.27C50.5556 22.43 50.6056 22.59 50.6656 22.75C50.7256 22.91 50.7956 23.06 50.8756 23.2C51.0356 23.44 51.1956 23.56 51.3556 23.56ZM63.62 25.45C62.16 25.45 61.1 25.12 60.44 24.46C59.8 23.8 59.48 22.93 59.48 21.85C59.48 21.03 59.65 20.13 59.99 19.15C60.25 18.35 60.6 17.54 61.04 16.72C61.48 15.88 61.99 15.11 62.57 14.41C63.15 13.69 63.79 13.12 64.49 12.7C65.19 12.26 65.93 12.04 66.71 12.04C67.71 12.04 68.52 12.2 69.14 12.52C69.78 12.82 70.1 13.32 70.1 14.02C70.1 14.54 69.89 15.19 69.47 15.97C68.91 17.05 68.09 17.94 67.01 18.64C65.93 19.34 64.72 19.74 63.38 19.84C63.08 20.66 62.9 21.33 62.84 21.85C62.82 21.95 62.81 22.05 62.81 22.15C62.81 22.23 62.81 22.32 62.81 22.42C62.81 23.08 62.96 23.56 63.26 23.86C63.56 24.14 63.93 24.28 64.37 24.28C65.19 24.28 65.91 24.07 66.53 23.65C67.15 23.23 67.69 22.7 68.15 22.06C68.63 21.42 69.04 20.78 69.38 20.14C69.58 19.78 69.75 19.45 69.89 19.15C70.03 18.83 70.14 18.6 70.22 18.46C70.32 18.3 70.43 18.22 70.55 18.22C70.67 18.22 70.78 18.29 70.88 18.43C70.98 18.55 70.99 18.69 70.91 18.85C70.65 19.37 70.29 20.06 69.83 20.92C69.37 21.78 68.85 22.54 68.27 23.2C67.63 23.96 66.94 24.53 66.2 24.91C65.48 25.27 64.62 25.45 63.62 25.45ZM63.77 18.97C64.67 18.63 65.46 18.02 66.14 17.14C66.84 16.26 67.31 15.29 67.55 14.23C67.57 14.13 67.58 14.04 67.58 13.96C67.6 13.88 67.61 13.8 67.61 13.72C67.61 13.32 67.49 13.12 67.25 13.12C67.05 13.12 66.84 13.26 66.62 13.54C66.3 13.92 65.96 14.44 65.6 15.1C65.24 15.74 64.92 16.37 64.64 16.99C64.36 17.61 64.15 18.08 64.01 18.4L63.77 18.97ZM72.1095 25.24C71.3895 25.24 70.7395 25.04 70.1595 24.64C69.5795 24.22 69.2895 23.55 69.2895 22.63C69.2895 21.91 69.4295 21.03 69.7095 19.99C69.9895 18.95 70.3595 17.89 70.8195 16.81C71.2795 15.71 71.7795 14.72 72.3195 13.84H71.0295C70.9095 13.84 70.8495 13.79 70.8495 13.69C70.8495 13.61 70.8995 13.52 70.9995 13.42C71.0995 13.3 71.2195 13.22 71.3595 13.18C71.6795 13.08 72.0895 12.9 72.5895 12.64C73.1095 12.36 73.6495 12.04 74.2095 11.68C74.7695 11.32 75.2995 10.96 75.7995 10.6C76.2995 10.24 76.6995 9.93 76.9995 9.67C77.1795 9.51 77.3695 9.4 77.5695 9.34C77.7895 9.28 77.9995 9.25 78.1995 9.25C78.5395 9.25 78.7995 9.31 78.9795 9.43C79.1595 9.55 79.1595 9.67 78.9795 9.79C78.8195 9.89 78.5995 10.14 78.3195 10.54C78.0395 10.94 77.7495 11.38 77.4495 11.86C77.1695 12.34 76.9195 12.77 76.6995 13.15H78.9795C79.0195 13.15 79.0395 13.18 79.0395 13.24C79.0395 13.34 78.9995 13.47 78.9195 13.63C78.8395 13.77 78.7595 13.84 78.6795 13.84H76.3095C75.9095 14.54 75.4695 15.34 74.9895 16.24C74.5095 17.14 74.0495 18.06 73.6095 19C73.1895 19.92 72.8395 20.78 72.5595 21.58C72.2795 22.36 72.1395 22.98 72.1395 23.44C72.1395 23.94 72.3695 24.19 72.8295 24.19C73.3095 24.19 73.8495 23.96 74.4495 23.5C74.9495 23.08 75.4195 22.56 75.8595 21.94C76.2795 21.36 76.6495 20.76 76.9695 20.14C77.3095 19.52 77.5895 18.99 77.8095 18.55C77.8895 18.41 77.9995 18.34 78.1395 18.34C78.2795 18.34 78.3895 18.4 78.4695 18.52C78.5695 18.62 78.5795 18.75 78.4995 18.91C78.1995 19.51 77.8195 20.21 77.3595 21.01C76.8995 21.81 76.4095 22.54 75.8895 23.2C75.4695 23.72 75.0595 24.12 74.6595 24.4C74.2795 24.66 73.8695 24.86 73.4295 25C73.0095 25.16 72.5695 25.24 72.1095 25.24Z" fill="#009C8F"/>
<defs>
<clipPath id="clip0_230_123">
<rect width="12" height="12" fill="white" transform="translate(35.6973 10) rotate(23.0439)"/>
</clipPath>
</defs>
</svg>
