<svg width="47" height="30" viewBox="0 0 47 30" fill="none" xmlns="http://www.w3.org/2000/svg">
<g clip-path="url(#clip0_264_29)">
<path d="M23.5023 3.7603C22.8328 3.7603 22.29 3.21752 22.29 2.54803V1.21227C22.29 0.542773 22.8328 0 23.5023 0C24.1718 0 24.7146 0.542773 24.7146 1.21227V2.54803C24.7146 3.21752 24.1718 3.7603 23.5023 3.7603Z" fill="#098E83"/>
<path d="M15.4726 5.77657C14.9 5.77657 14.3906 5.36908 14.2822 4.78574L14.0207 3.37943C13.8982 2.72117 14.3326 2.08837 14.9908 1.96593C15.6493 1.84365 16.2819 2.27788 16.4043 2.93606L16.6658 4.34237C16.7883 5.00063 16.3539 5.63344 15.6957 5.75588C15.6208 5.76986 15.5462 5.77657 15.4726 5.77657Z" fill="#098E83"/>
<path d="M31.5273 5.81551C31.4538 5.81551 31.3792 5.8088 31.3043 5.7949C30.646 5.67246 30.2117 5.03966 30.3341 4.3814L30.5957 2.97509C30.7181 2.31682 31.3508 1.88283 32.0092 2.00495C32.6674 2.12739 33.1017 2.76019 32.9793 3.41845L32.7178 4.82476C32.6092 5.40802 32.0999 5.81551 31.5273 5.81551Z" fill="#098E83"/>
<path d="M29.9912 14.0601H17.0146C16.4306 14.0601 15.9296 13.6437 15.8228 13.0695L14.2822 4.78654C14.1917 4.30001 14.406 3.80743 14.8235 3.54194C15.2412 3.27646 15.7781 3.29149 16.1803 3.57961L20.3001 6.53276L22.4049 2.03445C22.6043 1.60822 23.0323 1.33594 23.5028 1.33594C23.9734 1.33594 24.4015 1.60822 24.6008 2.03445L26.7055 6.53276L30.8253 3.57961C31.2276 3.29133 31.7645 3.27638 32.1821 3.54194C32.5997 3.80743 32.8139 4.30009 32.7234 4.78654L31.1828 13.0695C31.0763 13.6436 30.5752 14.0601 29.9912 14.0601Z" fill="#17AB9F"/>
<path d="M32.1822 3.54194C31.7646 3.27637 31.2276 3.29132 30.8254 3.5796L26.7056 6.53276L24.6009 2.03444C24.4015 1.60821 23.9735 1.33594 23.5029 1.33594V14.0602H29.9912C30.5753 14.0602 31.0763 13.6438 31.183 13.0696L32.7237 4.78661C32.814 4.30009 32.5998 3.80743 32.1822 3.54194Z" fill="#009C8F"/>
<path d="M30.7993 14.0612H16.2064C15.5369 14.0612 14.9941 13.5184 14.9941 12.8489C14.9941 12.1794 15.5369 11.6367 16.2064 11.6367H30.7993C31.4688 11.6367 32.0116 12.1794 32.0116 12.8489C32.0116 13.5184 31.4688 14.0612 30.7993 14.0612Z" fill="#19A296"/>
<path d="M30.7994 11.6367H23.5029V14.0613H30.7994C31.4689 14.0613 32.0116 13.5185 32.0116 12.849C32.0116 12.1795 31.4689 11.6367 30.7994 11.6367Z" fill="#029286"/>
<path d="M39 13.5078H8C3.58172 13.5078 0 17.0895 0 21.5078C0 25.9261 3.58172 29.5078 8 29.5078H39C43.4183 29.5078 47 25.9261 47 21.5078C47 17.0895 43.4183 13.5078 39 13.5078Z" fill="#47B0A7"/>
<path d="M9.75974 19.1245H15.2557V21.1045H9.75974V19.1245ZM12.9997 24.2125V21.8965H16.2157V16.4005H15.2557V18.3205H9.75974V16.4005H8.78774V21.8965H12.0037V24.2125H7.63574V25.0165H17.3917V24.2125H12.9997ZM27.8908 17.2045H24.0388V15.8005H23.0548V17.2045H19.1548V18.0085H27.8908V17.2045ZM21.0028 20.7805C21.0028 19.9885 21.9748 19.5085 23.5468 19.5085C25.0948 19.5085 26.0548 19.9885 26.0548 20.7805C26.0548 21.5845 25.0948 22.0645 23.5468 22.0645C21.9748 22.0645 21.0028 21.5845 21.0028 20.7805ZM24.0388 24.3325V22.8205C25.9108 22.7005 27.0508 21.9805 27.0508 20.7805C27.0508 19.4845 25.6948 18.7405 23.5468 18.7405C21.3628 18.7405 20.0068 19.4845 20.0068 20.7805C20.0068 21.9805 21.1588 22.7125 23.0548 22.8205V24.3325H18.6748V25.1365H28.4308V24.3325H24.0388ZM33.3378 17.5525H35.7258V16.7365H29.9058V17.5525H32.3658V18.9205C32.3658 20.7445 31.0698 22.7845 29.5338 23.5525L30.1098 24.3325C31.3218 23.7085 32.3658 22.3405 32.8578 20.7685C33.3498 22.2085 34.3578 23.4685 35.5578 24.0685L36.1218 23.2765C34.5618 22.5445 33.3378 20.6365 33.3378 18.9205V17.5525ZM39.7698 19.9765H37.9938V15.6445H37.0098V26.3965H37.9938V20.8045H39.7698V19.9765Z" fill="white"/>
</g>
<defs>
<clipPath id="clip0_264_29">
<rect width="47" height="30" fill="white"/>
</clipPath>
</defs>
</svg>
