<svg width="364" height="190" viewBox="0 0 364 190" fill="none" xmlns="http://www.w3.org/2000/svg">
<path d="M0 4.00001C0 1.79087 1.79086 0 4 0H360C362.209 0 364 1.79086 364 4V190H0V4.00001Z" fill="#F3F3F3"/>
<g clip-path="url(#clip0_256_44)">
<path d="M170.75 95C172.821 95 174.5 93.3211 174.5 91.25C174.5 89.1789 172.821 87.5 170.75 87.5C168.679 87.5 167 89.1789 167 91.25C167 93.3211 168.679 95 170.75 95Z" fill="white"/>
<path d="M177.5 89C179.571 89 181.25 87.3211 181.25 85.25C181.25 83.1789 179.571 81.5 177.5 81.5C175.429 81.5 173.75 83.1789 173.75 85.25C173.75 87.3211 175.429 89 177.5 89Z" fill="white"/>
<path d="M186.5 89C188.571 89 190.25 87.3211 190.25 85.25C190.25 83.1789 188.571 81.5 186.5 81.5C184.429 81.5 182.75 83.1789 182.75 85.25C182.75 87.3211 184.429 89 186.5 89Z" fill="white"/>
<path d="M193.25 95C195.321 95 197 93.3211 197 91.25C197 89.1789 195.321 87.5 193.25 87.5C191.179 87.5 189.5 89.1789 189.5 91.25C189.5 93.3211 191.179 95 193.25 95Z" fill="white"/>
<path d="M190.01 99.29C188.705 97.76 187.61 96.455 186.29 94.925C185.6 94.115 184.715 93.305 183.665 92.945C183.5 92.885 183.335 92.84 183.17 92.81C182.795 92.75 182.39 92.75 182 92.75C181.61 92.75 181.205 92.75 180.815 92.825C180.65 92.855 180.485 92.9 180.32 92.96C179.27 93.32 178.4 94.13 177.695 94.94C176.39 96.47 175.295 97.775 173.975 99.305C172.01 101.27 169.595 103.445 170.045 106.49C170.48 108.02 171.575 109.535 173.54 109.97C174.635 110.195 178.13 109.31 181.85 109.31H182.12C185.84 109.31 189.335 110.18 190.43 109.97C192.395 109.535 193.49 108.005 193.925 106.49C194.39 103.43 191.975 101.255 190.01 99.29Z" fill="white"/>
</g>
<defs>
<clipPath id="clip0_256_44">
<rect width="36" height="36" fill="white" transform="translate(164 77)"/>
</clipPath>
</defs>
</svg>
