<svg width="47" height="30" viewBox="0 0 47 30" fill="none" xmlns="http://www.w3.org/2000/svg">
<g clip-path="url(#clip0_263_30)">
<path d="M23.5023 4.25249C22.8328 4.25249 22.29 3.70971 22.29 3.04022V1.70446C22.29 1.03496 22.8328 0.492188 23.5023 0.492188C24.1718 0.492188 24.7146 1.03496 24.7146 1.70446V3.04022C24.7146 3.70971 24.1718 4.25249 23.5023 4.25249Z" fill="#098E83"/>
<path d="M15.4726 6.26876C14.9 6.26876 14.3906 5.86127 14.2822 5.27793L14.0207 3.87162C13.8982 3.21336 14.3326 2.58056 14.9908 2.45812C15.6493 2.33584 16.2819 2.77007 16.4043 3.42825L16.6658 4.83456C16.7883 5.49283 16.3539 6.12563 15.6957 6.24807C15.6208 6.26205 15.5462 6.26876 15.4726 6.26876Z" fill="#098E83"/>
<path d="M31.5273 6.3077C31.4538 6.3077 31.3792 6.30099 31.3043 6.28709C30.646 6.16465 30.2117 5.53185 30.3341 4.87359L30.5957 3.46728C30.7181 2.80902 31.3508 2.37502 32.0092 2.49714C32.6674 2.61958 33.1017 3.25238 32.9793 3.91064L32.7178 5.31695C32.6092 5.90022 32.0999 6.3077 31.5273 6.3077Z" fill="#098E83"/>
<path d="M29.9912 14.5523H17.0146C16.4306 14.5523 15.9296 14.1359 15.8228 13.5617L14.2822 5.27872C14.1917 4.79219 14.406 4.29962 14.8235 4.03414C15.2412 3.76865 15.7781 3.78368 16.1803 4.0718L20.3001 7.02495L22.4049 2.52663C22.6043 2.1004 23.0323 1.82812 23.5028 1.82812C23.9734 1.82812 24.4015 2.1004 24.6008 2.52663L26.7055 7.02495L30.8253 4.0718C31.2276 3.78352 31.7645 3.76857 32.1821 4.03414C32.5997 4.29962 32.8139 4.79228 32.7234 5.27872L31.1828 13.5617C31.0763 14.1359 30.5752 14.5523 29.9912 14.5523Z" fill="#17AB9F"/>
<path d="M32.1822 4.03413C31.7646 3.76856 31.2276 3.7835 30.8254 4.07178L26.7056 7.02495L24.6009 2.52664C24.4015 2.1004 23.9735 1.82812 23.5029 1.82812V14.5524H29.9912C30.5753 14.5524 31.0763 14.1361 31.183 13.5618L32.7237 5.27881C32.814 4.79228 32.5998 4.29962 32.1822 4.03413Z" fill="#009C8F"/>
<path d="M30.7993 14.5495H16.2064C15.5369 14.5495 14.9941 14.0067 14.9941 13.3372C14.9941 12.6677 15.5369 12.125 16.2064 12.125H30.7993C31.4688 12.125 32.0116 12.6677 32.0116 13.3372C32.0116 14.0067 31.4688 14.5495 30.7993 14.5495Z" fill="#19A296"/>
<path d="M30.7994 12.1289H23.5029V14.5534H30.7994C31.4689 14.5534 32.0116 14.0106 32.0116 13.3411C32.0116 12.6716 31.4689 12.1289 30.7994 12.1289Z" fill="#029286"/>
<path d="M39 14H8C3.58172 14 0 17.5817 0 22C0 26.4183 3.58172 30 8 30H39C43.4183 30 47 26.4183 47 22C47 17.5817 43.4183 14 39 14Z" fill="#47B0A7"/>
<path d="M9.79602 24.921H16.12V22.497H8.80002V23.253H15.148V24.201H8.83602V26.757H16.444V26.001H9.79602V24.921ZM13 20.805V19.785H16.216V18.993H9.91602V17.325H16.108V16.533H8.93202V19.785H12.016V20.805H7.62402V21.597H17.368V20.805H13ZM20.7991 19.617H26.2951V21.597H20.7991V19.617ZM24.0391 24.705V22.389H27.2551V16.893H26.2951V18.813H20.7991V16.893H19.8271V22.389H23.0431V24.705H18.6751V25.509H28.4311V24.705H24.0391ZM30.3381 17.181V24.177H35.2821V17.181H30.3381ZM34.3221 17.973V23.397H31.2981V17.973H34.3221ZM37.5381 16.125V26.913H38.5221V16.125H37.5381Z" fill="white"/>
</g>
<defs>
<clipPath id="clip0_263_30">
<rect width="47" height="30" fill="white"/>
</clipPath>
</defs>
</svg>
