<svg width="15" height="15" viewBox="0 0 15 15" fill="none" xmlns="http://www.w3.org/2000/svg">
<g clip-path="url(#clip0_246_52)">
<path d="M3.49495 7.86979C4.30037 7.86979 4.95329 7.21687 4.95329 6.41146C4.95329 5.60604 4.30037 4.95312 3.49495 4.95312C2.68954 4.95312 2.03662 5.60604 2.03662 6.41146C2.03662 7.21687 2.68954 7.86979 3.49495 7.86979Z" fill="#009C8F"/>
<path d="M6.11995 5.53776C6.92537 5.53776 7.57829 4.88484 7.57829 4.07943C7.57829 3.27401 6.92537 2.62109 6.11995 2.62109C5.31454 2.62109 4.66162 3.27401 4.66162 4.07943C4.66162 4.88484 5.31454 5.53776 6.11995 5.53776Z" fill="#009C8F"/>
<path d="M9.61995 5.53776C10.4254 5.53776 11.0783 4.88484 11.0783 4.07943C11.0783 3.27401 10.4254 2.62109 9.61995 2.62109C8.81454 2.62109 8.16162 3.27401 8.16162 4.07943C8.16162 4.88484 8.81454 5.53776 9.61995 5.53776Z" fill="#009C8F"/>
<path d="M12.245 7.86979C13.0504 7.86979 13.7033 7.21687 13.7033 6.41146C13.7033 5.60604 13.0504 4.95312 12.245 4.95312C11.4395 4.95312 10.7866 5.60604 10.7866 6.41146C10.7866 7.21687 11.4395 7.86979 12.245 7.86979Z" fill="#009C8F"/>
<path d="M10.9852 9.53943C10.4777 8.94443 10.0518 8.43693 9.53849 7.84193C9.27016 7.52693 8.92599 7.21193 8.51766 7.07193C8.45349 7.04859 8.38933 7.03109 8.32516 7.01943C8.17933 6.99609 8.02183 6.99609 7.87016 6.99609C7.71849 6.99609 7.56099 6.99609 7.40933 7.02526C7.34516 7.03693 7.28099 7.05443 7.21683 7.07776C6.80849 7.21776 6.47016 7.53276 6.19599 7.84776C5.68849 8.44276 5.26266 8.95026 4.74933 9.54526C3.98516 10.3094 3.04599 11.1553 3.22099 12.3394C3.39016 12.9344 3.81599 13.5236 4.58016 13.6928C5.00599 13.7803 6.36516 13.4361 7.81183 13.4361H7.91683C9.36349 13.4361 10.7227 13.7744 11.1485 13.6928C11.9127 13.5236 12.3385 12.9286 12.5077 12.3394C12.6885 11.1494 11.7493 10.3036 10.9852 9.53943Z" fill="#009C8F"/>
</g>
<defs>
<clipPath id="clip0_246_52">
<rect width="14" height="14" fill="white" transform="translate(0.870117 0.871094)"/>
</clipPath>
</defs>
</svg>
